<svg width="1400" height="860" viewBox="0 0 1400 860" fill="none" xmlns="http://www.w3.org/2000/svg">
  <rect width="1400" height="860" rx="36" fill="#F6EEE4"/>
  <rect x="36" y="36" width="920" height="788" rx="34" fill="white" fill-opacity="0.84" stroke="#F5D2BC"/>
  <rect x="982" y="36" width="382" height="388" rx="34" fill="white" fill-opacity="0.84" stroke="#D4EADD"/>
  <rect x="982" y="448" width="382" height="376" rx="34" fill="white" fill-opacity="0.84" stroke="#D8E2F1"/>
  <rect x="76" y="76" width="264" height="44" rx="22" fill="#FFF0DF"/>
  <text x="98" y="104" fill="#C45718" font-family="Arial, sans-serif" font-size="24" font-weight="700" letter-spacing="3">LAUNCHLENS AI APP AUDITOR</text>
  <text x="76" y="198" fill="#16213A" font-family="Georgia, serif" font-size="72" font-weight="700">Go from AI app idea</text>
  <text x="76" y="274" fill="#16213A" font-family="Georgia, serif" font-size="72" font-weight="700">to Cloudflare build plan.</text>
  <text x="76" y="340" fill="#5A6780" font-family="Arial, sans-serif" font-size="30">Paste one idea or URL. LaunchLens returns the market read,</text>
  <text x="76" y="382" fill="#5A6780" font-family="Arial, sans-serif" font-size="30">Cloudflare architecture, builder handoff, and launch page.</text>

  <rect x="76" y="440" width="252" height="128" rx="28" fill="#FFF7F0" stroke="#F4D1B9"/>
  <rect x="352" y="440" width="252" height="128" rx="28" fill="#F2FBF6" stroke="#CBE7D5"/>
  <rect x="628" y="440" width="252" height="128" rx="28" fill="#F4F8FF" stroke="#D3E2FA"/>
  <text x="102" y="486" fill="#16213A" font-family="Georgia, serif" font-size="32" font-weight="700">Brief</text>
  <text x="102" y="528" fill="#5A6780" font-family="Arial, sans-serif" font-size="24">Start with one sentence</text>
  <text x="102" y="558" fill="#5A6780" font-family="Arial, sans-serif" font-size="24">or a URL.</text>
  <text x="378" y="486" fill="#16213A" font-family="Georgia, serif" font-size="32" font-weight="700">Audit</text>
  <text x="378" y="528" fill="#5A6780" font-family="Arial, sans-serif" font-size="24">Get the wedge,</text>
  <text x="378" y="558" fill="#5A6780" font-family="Arial, sans-serif" font-size="24">competitors, and proof.</text>
  <text x="654" y="486" fill="#16213A" font-family="Georgia, serif" font-size="32" font-weight="700">Ship</text>
  <text x="654" y="528" fill="#5A6780" font-family="Arial, sans-serif" font-size="24">Export the build kit</text>
  <text x="654" y="558" fill="#5A6780" font-family="Arial, sans-serif" font-size="24">and launch page.</text>

  <rect x="76" y="620" width="240" height="68" rx="34" fill="#F97316"/>
  <text x="130" y="664" fill="white" font-family="Arial, sans-serif" font-size="28" font-weight="700">Open Workspace</text>
  <rect x="340" y="620" width="230" height="68" rx="34" fill="white" stroke="#D7DEE9"/>
  <text x="388" y="664" fill="#1E293B" font-family="Arial, sans-serif" font-size="28" font-weight="700">Continue Session</text>

  <text x="1022" y="92" fill="#0F766E" font-family="Arial, sans-serif" font-size="24" font-weight="700" letter-spacing="2">WHY CLOUDFLARE MATTERS HERE</text>
  <text x="1022" y="150" fill="#334155" font-family="Arial, sans-serif" font-size="24">LaunchLens turns the audit into a concrete</text>
  <text x="1022" y="184" fill="#334155" font-family="Arial, sans-serif" font-size="24">Cloudflare architecture recommendation and</text>
  <text x="1022" y="218" fill="#334155" font-family="Arial, sans-serif" font-size="24">a handoff another engineer can use immediately.</text>
  <rect x="1022" y="270" width="138" height="42" rx="21" fill="#F2FBF6"/><text x="1051" y="297" fill="#0F766E" font-family="Arial, sans-serif" font-size="20" font-weight="700">Workers AI</text>
  <rect x="1176" y="270" width="110" height="42" rx="21" fill="#F2FBF6"/><text x="1202" y="297" fill="#0F766E" font-family="Arial, sans-serif" font-size="20" font-weight="700">Workflow</text>
  <rect x="1022" y="326" width="186" height="42" rx="21" fill="#F2FBF6"/><text x="1050" y="353" fill="#0F766E" font-family="Arial, sans-serif" font-size="20" font-weight="700">Durable Object</text>
  <rect x="1222" y="326" width="104" height="42" rx="21" fill="#F2FBF6"/><text x="1246" y="353" fill="#0F766E" font-family="Arial, sans-serif" font-size="20" font-weight="700">Chat + Voice</text>

  <text x="1022" y="504" fill="#46617A" font-family="Arial, sans-serif" font-size="24" font-weight="700" letter-spacing="2">WHAT YOU GET</text>
  <rect x="1022" y="540" width="302" height="76" rx="24" fill="#F8FAFC" stroke="#D7DEE9"/>
  <text x="1052" y="585" fill="#16213A" font-family="Georgia, serif" font-size="30" font-weight="700">Market wedge</text>
  <rect x="1022" y="634" width="302" height="76" rx="24" fill="#F8FAFC" stroke="#D7DEE9"/>
  <text x="1052" y="679" fill="#16213A" font-family="Georgia, serif" font-size="30" font-weight="700">Cloudflare plan</text>
  <rect x="1022" y="728" width="302" height="76" rx="24" fill="#F8FAFC" stroke="#D7DEE9"/>
  <text x="1052" y="773" fill="#16213A" font-family="Georgia, serif" font-size="30" font-weight="700">Builder handoff</text>
</svg>
